<?xml version="1.0" encoding="utf-8"?>
<!DOCTYPE svg PUBLIC "-//W3C//DTD SVG 1.1//EN" "http://www.w3.org/Graphics/SVG/1.1/DTD/svg11.dtd">
<svg version="1.1" id="info_icon" xmlns="http://www.w3.org/2000/svg" xmlns:xlink="http://www.w3.org/1999/xlink" x="0" y="0"
	width="34" height="34" viewBox="0 0 34 34" enable-background="new 0 0 34 34" xml:space="preserve">
<path fill="#000000" d="M17,0C7.61,0,0,7.61,0,17s7.61,17,17,17s17-7.61,17-17S26.39,0,17,0z M19.723,26.629
	c0,0.186-0.146,0.332-0.332,0.332h-4.516c-0.186,0-0.332-0.146-0.332-0.332V15.074c0-0.186,0.146-0.332,0.332-0.332h4.516
	c0.186,0,0.332,0.146,0.332,0.332V26.629z M17.192,12.146c-1.541,0-2.789-1.248-2.789-2.789c0-1.541,1.249-2.789,2.789-2.789
	c1.541,0,2.789,1.249,2.789,2.789C19.981,10.897,18.733,12.146,17.192,12.146z"/>
</svg>
