<svg xmlns="http://www.w3.org/2000/svg" xmlns:xlink="http://www.w3.org/1999/xlink" version="1.1" x="0px" y="0px" viewBox="0 0 100 125" style="enable-background:new 0 0 100 100;" xml:space="preserve"><g><path d="M83.8,34.5c0-6.6-5.4-12-12-12H28.2c-6.6,0-12,5.4-12,12v31c0,6.6,5.4,12,12,12h43.6c6.6,0,12-5.4,12-12V34.5z M28.2,26.5   h43.6c3.6,0,6.7,2.5,7.7,5.8l-27,21c-1.4,1.1-3.5,1.1-4.9,0l-27-21C21.5,29,24.6,26.5,28.2,26.5z M71.8,73.5H28.2c-4.4,0-8-3.6-8-8   V37.1l24.9,19.4c1.4,1.1,3.2,1.7,4.9,1.7c1.7,0,3.5-0.6,4.9-1.7l24.9-19.4v28.4C79.8,69.9,76.2,73.5,71.8,73.5z"/></g><text x="0" y="115" fill="#000000" font-size="5px" font-weight="bold" font-family="'Helvetica Neue', Helvetica, Arial-Unicode, Arial, Sans-serif">Created by Gagana</text><text x="0" y="120" fill="#000000" font-size="5px" font-weight="bold" font-family="'Helvetica Neue', Helvetica, Arial-Unicode, Arial, Sans-serif">from the Noun Project</text></svg>