<?xml version="1.0" encoding="utf-8"?>
<!DOCTYPE svg PUBLIC "-//W3C//DTD SVG 1.1//EN" "http://www.w3.org/Graphics/SVG/1.1/DTD/svg11.dtd">
<svg version="1.1" id="mail_icon" xmlns="http://www.w3.org/2000/svg" xmlns:xlink="http://www.w3.org/1999/xlink" x="0" y="0"
	width="34" height="34" viewBox="0 0 34 34" enable-background="new 0 0 34 34" xml:space="preserve">
<path fill="#000000" d="M34,29.747c-11.332,0-22.669,0-34,0c0-5.52,0-11.032,0-16.553c0.244,0.083,0.499,0.135,0.729,0.241
	c5.104,2.398,10.218,4.778,15.303,7.218c0.785,0.381,1.381,0.375,2.168-0.004c5.251-2.514,10.528-4.976,15.8-7.456
	C34,18.715,34,24.228,34,29.747z M34,8.499c-0.241,0.075-0.499,0.121-0.725,0.229c-5.075,2.395-10.154,4.784-15.214,7.211
	c-0.66,0.314-1.159,0.381-1.851,0.035c-2.398-1.19-4.847-2.274-7.262-3.42C5.96,11.138,2.981,9.702,0,8.274c0-1.34,0-2.681,0-4.021
	c11.33,0,22.667,0,34,0C34,5.671,34,7.085,34,8.499z"/>
</svg>
