<svg xmlns="http://www.w3.org/2000/svg" xmlns:xlink="http://www.w3.org/1999/xlink" version="1.1" x="0px" y="0px" viewBox="0 0 100 125" style="enable-background:new 0 0 100 100;" xml:space="preserve"><g><path d="M81.2,78.4L68,65.1c4.3-5,7-11.5,7-18.6c0-15.6-12.7-28.4-28.4-28.4S18.2,30.9,18.2,46.6s12.7,28.4,28.4,28.4   c7.1,0,13.6-2.6,18.6-7l13.2,13.2c0.4,0.4,0.9,0.6,1.4,0.6s1-0.2,1.4-0.6C82,80.4,82,79.2,81.2,78.4z M22.2,46.6   c0-13.4,10.9-24.4,24.4-24.4s24.4,10.9,24.4,24.4S60,70.9,46.6,70.9S22.2,60,22.2,46.6z"/></g><text x="0" y="115" fill="#000000" font-size="5px" font-weight="bold" font-family="'Helvetica Neue', Helvetica, Arial-Unicode, Arial, Sans-serif">Created by Gagana</text><text x="0" y="120" fill="#000000" font-size="5px" font-weight="bold" font-family="'Helvetica Neue', Helvetica, Arial-Unicode, Arial, Sans-serif">from the Noun Project</text></svg>